Coordinates
version=1
nRows=38
nColumns=12
inDegrees=yes

Units are S.I. units (second, meters, Newtons, ...)
Angles are in degrees

endheader
time	SC_y	SC_z	SC_x	AC_y	AC_z	AC_x	GH_y	GH_z	GH_yy	EL_x	PS_y
       0.0              -38.09          13.21          5.998          45.23         -17.79         -15.95         -146.2           55.3          84.93          133.6          159.5
   0.02445              -38.09          13.22          5.998          45.23         -17.78         -15.94         -146.2           55.3           84.9          133.6          159.5
    0.0489              -38.09          13.22          5.998          45.23         -17.78         -15.94         -146.2           55.3          84.88          133.6          159.5
   0.07335               -38.1          13.22          5.998          45.22         -17.77         -15.93         -146.2           55.3          84.85          133.6          159.5
    0.0978               -38.1          13.22          5.998          45.22         -17.77         -15.93         -146.1           55.3          84.82          133.6          159.5
    0.1222              -38.11          13.22          5.998          45.22         -17.76         -15.92         -146.1           55.3          84.79          133.6          159.5
    0.1467              -38.11          13.22          5.998          45.22         -17.76         -15.92         -146.1          55.29          84.76          133.6          159.4
    0.1711              -38.11          13.22          5.999          45.22         -17.75         -15.91         -146.0          55.29          84.72          133.6          159.4
    0.1956              -38.12          13.22          5.999          45.22         -17.75          -15.9         -146.0          55.29          84.68          133.6          159.4
      0.22              -38.12          13.22          5.999          45.22         -17.74          -15.9         -146.0          55.29          84.64          133.6          159.4
    0.2445              -38.13          13.22          5.999          45.21         -17.73         -15.89         -145.9          55.29           84.6          133.6          159.4
    0.2689              -38.14          13.22          5.999          45.21         -17.73         -15.88         -145.9          55.28          84.55          133.6          159.4
    0.2934              -38.14          13.22          5.999          45.21         -17.72         -15.87         -145.8          55.28           84.5          133.6          159.4
    0.3178              -38.15          13.23          5.999          45.21         -17.71         -15.86         -145.8          55.28          84.44          133.6          159.3
    0.3423              -38.16          13.23          5.999           45.2          -17.7         -15.85         -145.7          55.28          84.38          133.6          159.3
    0.3667              -38.17          13.23          5.999           45.2         -17.69         -15.84         -145.7          55.27          84.32          133.6          159.3
    0.3912              -38.18          13.23          5.999           45.2         -17.68         -15.83         -145.6          55.27          84.25          133.6          159.3
    0.4156              -38.19          13.23            6.0           45.2         -17.67         -15.81         -145.5          55.26          84.17          133.6          159.3
    0.4401               -38.2          13.23            6.0          45.19         -17.65          -15.8         -145.5          55.26          84.09          133.6          159.2
    0.4645              -38.21          13.24            6.0          45.19         -17.64         -15.78         -145.4          55.26           84.0          133.6          159.2
     0.489              -38.22          13.24            6.0          45.18         -17.62         -15.76         -145.3          55.25           83.9          133.5          159.2
    0.5134              -38.23          13.24            6.0          45.18         -17.61         -15.74         -145.2          55.24          83.79          133.5          159.1
    0.5379              -38.25          13.24            6.0          45.17         -17.59         -15.72         -145.1          55.24          83.66          133.5          159.1
    0.5623              -38.27          13.25          6.001          45.17         -17.57          -15.7         -144.9          55.23          83.53          133.5          159.0
    0.5868              -38.29          13.25          6.001          45.16         -17.54         -15.67         -144.8          55.22          83.38          133.5          159.0
    0.6112              -38.31          13.26          6.001          45.15         -17.52         -15.64         -144.6          55.22          83.21          133.5          158.9
    0.6357              -38.33          13.26          6.002          45.15         -17.49         -15.61         -144.5          55.21          83.02          133.5          158.9
    0.6601              -38.36          13.26          6.002          45.14         -17.45         -15.57         -144.3           55.2          82.81          133.5          158.8
    0.6846              -38.39          13.27          6.002          45.13         -17.41         -15.53         -144.0          55.18          82.57          133.5          158.7
     0.709              -38.43          13.28          6.003          45.12         -17.37         -15.48         -143.8          55.17           82.3          133.5          158.6
    0.7335              -38.47          13.28          6.004           45.1         -17.32         -15.42         -143.5          55.15          81.99          133.4          158.5
    0.7579              -38.51          13.29          6.004          45.09         -17.27         -15.36         -143.2          55.14          81.63          133.4          158.4
    0.7824              -38.56           13.3          6.005          45.07          -17.2         -15.28         -142.8          55.12          81.22          133.4          158.3
    0.8068              -38.63          13.31          6.006          45.05         -17.13          -15.2         -142.3          55.09          80.75          133.4          158.1
    0.8313               -38.7          13.33          6.007          45.03         -17.04          -15.1         -141.8          55.06          80.19          133.3          157.9
    0.8557              -38.78          13.34          6.008           45.0         -16.93         -14.98         -141.2          55.03          79.53          133.3          157.7
    0.8802              -38.88          13.36          6.009          44.96         -16.81         -14.84         -140.5          54.99          78.75          133.3          157.4
    0.9046               -39.0          13.38          6.011          44.92         -16.66         -14.67         -139.6          54.94          77.81          133.2          157.1
